<svg xmlns="http://www.w3.org/2000/svg" version="1.1" xmlns:xlink="http://www.w3.org/1999/xlink" xmlns:svgjs="http://svgjs.dev/svgjs" width="1500" height="1500" viewBox="0 0 1500 1500"><rect width="1500" height="1500" fill="#f8f8f8"></rect><g transform="matrix(0.6666666666666666,0,0,0.6666666666666666,249.39393939393938,666.7962170178237)"><svg viewBox="0 0 396 66" data-background-color="#f8f8f8" preserveAspectRatio="xMidYMid meet" height="250" width="1500" xmlns="http://www.w3.org/2000/svg" xmlns:xlink="http://www.w3.org/1999/xlink"><g id="tight-bounds" transform="matrix(1,0,0,1,0.2400000000000091,-0.05130193905816327)"><svg viewBox="0 0 395.52 66.10260387811634" height="66.10260387811634" width="395.52"><g><svg viewBox="0 0 395.52 66.10260387811634" height="66.10260387811634" width="395.52"><g><svg viewBox="0 0 395.52 66.10260387811634" height="66.10260387811634" width="395.52"><g id="textblocktransform"><svg viewBox="0 0 395.52 66.10260387811634" height="66.10260387811634" width="395.52" id="textblock"><g><svg viewBox="0 0 395.52 66.10260387811634" height="66.10260387811634" width="395.52"><g transform="matrix(1,0,0,1,0,0)"><svg width="395.52" viewBox="3.5 -35.6 213.39 36.2" height="66.10260387811634" data-palette-color="#1ca266"><g class="wordmark-text-0" data-fill-palette-color="primary" id="text-0"><path d="M16.85 0.6L16.85 0.6Q12.95 0.6 9.93-1.03 6.9-2.65 5.2-5.68 3.5-8.7 3.5-12.85L3.5-12.85 3.5-35 8.3-35 8.3-12.55Q8.3-10.1 9.33-8.08 10.35-6.05 12.28-4.83 14.2-3.6 16.85-3.6L16.85-3.6Q19.45-3.6 21.38-4.83 23.3-6.05 24.35-8.08 25.4-10.1 25.4-12.55L25.4-12.55 25.4-35 30.2-35 30.2-12.55Q30.2-10.1 31.23-8.08 32.25-6.05 34.18-4.83 36.1-3.6 38.75-3.6L38.75-3.6Q41.35-3.6 43.28-4.83 45.2-6.05 46.23-8.08 47.25-10.1 47.25-12.55L47.25-12.55 47.25-35 52.05-35 52.05-12.85Q52.05-8.7 50.35-5.68 48.65-2.65 45.65-1.03 42.65 0.6 38.75 0.6L38.75 0.6Q36.4 0.6 34.27-0.08 32.15-0.75 30.5-2.18 28.85-3.6 27.8-5.7L27.8-5.7Q26.8-3.6 25.1-2.2 23.4-0.8 21.28-0.1 19.15 0.6 16.85 0.6ZM78.7 0L72.15 0Q67.95 0 64.7-1.58 61.45-3.15 59.62-6.03 57.8-8.9 57.8-12.75L57.8-12.75Q57.8-16.55 59.35-19.58 60.9-22.6 63.65-24.35 66.4-26.1 70.05-26.1L70.05-26.1Q74-26.1 76.62-24.4 79.25-22.7 80.55-19.83 81.85-16.95 81.85-13.4L81.85-13.4Q81.85-12.85 81.82-12.25 81.8-11.65 81.7-11.2L81.7-11.2 62.7-11.2Q62.95-8.85 64.25-7.23 65.55-5.6 67.57-4.78 69.6-3.95 72.05-3.95L72.05-3.95 78.7-3.95 78.7 0ZM62.65-14.45L62.65-14.45 77.2-14.45Q77.2-15.4 77-16.48 76.8-17.55 76.3-18.57 75.8-19.6 74.97-20.43 74.15-21.25 72.92-21.75 71.7-22.25 70.05-22.25L70.05-22.25Q68.3-22.25 66.97-21.58 65.65-20.9 64.7-19.78 63.75-18.65 63.25-17.25 62.75-15.85 62.65-14.45Z" fill="#1ca266" data-fill-palette-color="primary"></path><path d="M122.35 0.6L122.35 0.6Q119.65 0.6 117.5-0.65 115.35-1.9 114.12-4.08 112.9-6.25 112.9-9.15L112.9-9.15 112.9-26.55Q112.9-27.9 112.25-29 111.6-30.1 110.5-30.75 109.4-31.4 108.1-31.4L108.1-31.4Q106.8-31.4 105.72-30.75 104.65-30.1 104.02-29 103.4-27.9 103.4-26.55L103.4-26.55 103.4 0 98.6 0 98.6-25.9Q98.6-28.65 99.8-30.85 101-33.05 103.15-34.33 105.3-35.6 108.1-35.6L108.1-35.6Q110.95-35.6 113.1-34.33 115.25-33.05 116.45-30.85 117.65-28.65 117.65-25.9L117.65-25.9 117.65-8.5Q117.65-7.1 118.3-6.03 118.95-4.95 120.02-4.3 121.1-3.65 122.35-3.65L122.35-3.65Q123.6-3.65 124.65-4.3 125.7-4.95 126.32-6.03 126.95-7.1 126.95-8.5L126.95-8.5 126.95-25.9Q126.95-28.65 128.17-30.85 129.4-33.05 131.55-34.33 133.7-35.6 136.55-35.6L136.55-35.6Q139.35-35.6 141.5-34.33 143.65-33.05 144.85-30.85 146.05-28.65 146.05-25.9L146.05-25.9 146.05 0 141.25 0 141.25-26.55Q141.25-27.9 140.62-29 140-30.1 138.92-30.75 137.85-31.4 136.55-31.4L136.55-31.4Q135.2-31.4 134.12-30.75 133.05-30.1 132.4-29 131.75-27.9 131.75-26.55L131.75-26.55 131.75-9.15Q131.75-6.25 130.52-4.08 129.3-1.9 127.17-0.65 125.05 0.6 122.35 0.6ZM163.8 0.6L163.8 0.6Q160.1 0.6 157.4-1.18 154.7-2.95 153.25-6 151.8-9.05 151.8-12.75L151.8-12.75Q151.8-16.5 153.4-19.53 155-22.55 158-24.33 161-26.1 165.2-26.1L165.2-26.1Q169.25-26.1 172.15-24.35 175.05-22.6 176.62-19.6 178.2-16.6 178.2-12.9L178.2-12.9 178.2 0 173.55 0 173.55-5.2 173.45-5.2Q172.7-3.75 171.42-2.43 170.15-1.1 168.25-0.25 166.35 0.6 163.8 0.6ZM165-3.35L165-3.35Q167.5-3.35 169.42-4.58 171.35-5.8 172.42-7.98 173.5-10.15 173.5-12.85L173.5-12.85Q173.5-15.5 172.47-17.6 171.45-19.7 169.55-20.93 167.65-22.15 165.1-22.15L165.1-22.15Q162.4-22.15 160.47-20.9 158.55-19.65 157.52-17.53 156.5-15.4 156.5-12.7L156.5-12.7Q156.5-10.1 157.5-7.98 158.5-5.85 160.4-4.6 162.3-3.35 165-3.35ZM189.94 0L185.34 0 185.34-18.25Q185.34-21.65 187.27-23.58 189.19-25.5 192.59-25.5L192.59-25.5 197.84-25.5 197.84-21.55 193.44-21.55Q191.79-21.55 190.87-20.6 189.94-19.65 189.94-17.95L189.94-17.95 189.94 0ZM216.79 0L210.79 0Q207.39 0 205.47-1.95 203.54-3.9 203.54-7.25L203.54-7.25 203.54-31.9 208.14-31.9 208.14-7.55Q208.14-5.9 209.07-4.93 209.99-3.95 211.64-3.95L211.64-3.95 216.79-3.95 216.79 0ZM216.89-21.55L199.14-21.55 199.14-25.5 216.89-25.5 216.89-21.55Z" fill="#000000" data-fill-palette-color="secondary"></path></g></svg></g></svg></g></svg></g></svg></g><g></g></svg></g><defs></defs></svg><rect width="395.52" height="66.10260387811634" fill="none" stroke="none" visibility="hidden"></rect></g></svg></g></svg>